<?xml version="1.0" encoding="UTF-8" standalone="no"?>
<!-- Created with Inkscape (http://www.inkscape.org/) -->

<svg
   xmlns:dc="http://purl.org/dc/elements/1.1/"
   xmlns:cc="http://creativecommons.org/ns#"
   xmlns:rdf="http://www.w3.org/1999/02/22-rdf-syntax-ns#"
   xmlns:svg="http://www.w3.org/2000/svg"
   xmlns="http://www.w3.org/2000/svg"
   xmlns:sodipodi="http://sodipodi.sourceforge.net/DTD/sodipodi-0.dtd"
   xmlns:inkscape="http://www.inkscape.org/namespaces/inkscape"
   width="263"
   height="60"
   viewBox="0 0 263 60.000001"
   id="svg2"
   version="1.1"
   inkscape:version="0.91 r13725"
   sodipodi:docname="logo.svg">
  <defs
     id="defs4" />
  <sodipodi:namedview
     id="base"
     pagecolor="#ffffff"
     bordercolor="#666666"
     borderopacity="1.0"
     inkscape:pageopacity="0.0"
     inkscape:pageshadow="2"
     inkscape:zoom="2.02"
     inkscape:cx="90.392186"
     inkscape:cy="99.808631"
     inkscape:document-units="px"
     inkscape:current-layer="layer1"
     showgrid="false"
     units="px"
     inkscape:window-width="1280"
     inkscape:window-height="751"
     inkscape:window-x="3"
     inkscape:window-y="0"
     inkscape:window-maximized="0" />
  <metadata
     id="metadata7">
    <rdf:RDF>
      <cc:Work
         rdf:about="">
        <dc:format>image/svg+xml</dc:format>
        <dc:type
           rdf:resource="http://purl.org/dc/dcmitype/StillImage" />
        <dc:title />
      </cc:Work>
    </rdf:RDF>
  </metadata>
  <g
     inkscape:label="Layer 1"
     inkscape:groupmode="layer"
     id="layer1"
     transform="translate(0,-992.36218)">
    <g
       style="font-style:normal;font-variant:normal;font-weight:bold;font-stretch:normal;font-size:80.93278503px;line-height:125%;font-family:Nunito;-inkscape-font-specification:'Nunito, Bold';text-align:start;letter-spacing:0px;word-spacing:0px;writing-mode:lr-tb;text-anchor:start;fill:#000000;fill-opacity:1;stroke:none;stroke-width:1px;stroke-linecap:butt;stroke-linejoin:miter;stroke-opacity:1"
       id="text3336">
      <path
         d="m 22.984911,1011.1674 q 7.122085,0 10.602195,4.0466 3.480109,4.0467 3.480109,12.2209 l 0,19.9095 q 0,2.2661 -1.375857,3.561 -1.294924,1.2949 -3.641975,1.2949 -2.347051,0 -3.722908,-1.2949 -1.375858,-1.2949 -1.375858,-3.561 l 0,-19.343 q 0,-4.6132 -1.780521,-6.7174 -1.699588,-2.1043 -5.422497,-2.1043 -4.37037,0 -7.041152,2.7518 -2.589849,2.7517 -2.589849,7.3648 l 0,18.0481 q 0,2.2661 -1.3758573,3.561 -1.3758573,1.2949 -3.7229081,1.2949 -2.3470508,0 -3.7229081,-1.2949 Q -5.7220459e-8,1049.6105 -5.7220459e-8,1047.3444 l 0,-31.321 q 0,-2.1043 1.375857357220459,-3.3992 1.3758573,-1.2949 3.7229081,-1.2949 2.1042524,0 3.399177,1.2949 1.3758573,1.214 1.3758573,3.2373 l 0,2.1852 q 2.0233193,-3.3183 5.4224963,-5.0988 3.399177,-1.7805 7.688615,-1.7805 z"
         style="fill:#ffffff"
         id="path3357" />
    </g>
    <text
       xml:space="preserve"
       style="font-style:normal;font-weight:normal;font-size:40px;line-height:125%;font-family:sans-serif;letter-spacing:0px;word-spacing:0px;fill:#000000;fill-opacity:1;stroke:none;stroke-width:1px;stroke-linecap:butt;stroke-linejoin:miter;stroke-opacity:1"
       x="195.54456"
       y="942.95624"
       id="text3953"
       sodipodi:linespacing="125%"><tspan
         sodipodi:role="line"
         id="tspan3955"
         x="195.54456"
         y="942.95624" /></text>
    <g
       id="g4070"
       transform="translate(43,999.36218)">
      <g
         id="g4046"
         style="fill:#dde8e3">
        <path
           id="path4048"
           d="M 2,31.4 C 2,40.2 5.7,53 17,53 28.3,53 32,40.2 32,31.4 32,4.2 2,4.2 2,31.4 Z"
           inkscape:connector-curvature="0" />
        <path
           id="path4050"
           d="M 32,31.4 C 32,40.2 35.7,53 47,53 58.3,53 62,40.2 62,31.4 62,4.2 32,4.2 32,31.4"
           inkscape:connector-curvature="0" />
      </g>
      <g
         id="g4052"
         style="fill:#ffffff">
        <path
           id="path4054"
           d="m 2.8,32.1 c 0,7.6 2.4,19.3 12,19.3 9.6,0 12,-11.8 12,-19.3 -0.1,-26 -24,-26 -24,0"
           inkscape:connector-curvature="0" />
        <path
           id="path4056"
           d="m 32.8,32.1 c 0,7.6 2.4,19.3 12,19.3 9.6,0 12,-11.8 12,-19.3 -0.1,-26 -24,-26 -24,0"
           inkscape:connector-curvature="0" />
      </g>
      <g
         id="g4058"
         style="fill:#493b30">
        <path
           id="path4060"
           d="m 2.8,32.2 c 0,6.2 4.4,11 9.7,11 5.4,0 9.7,-4.8 9.7,-11 C 22.2,17 2.8,17 2.8,32.2"
           inkscape:connector-curvature="0" />
        <path
           id="path4062"
           d="m 32.8,32.2 c 0,6.2 4.4,11 9.7,11 5.4,0 9.7,-4.8 9.7,-11 0,-15.2 -19.4,-15.2 -19.4,0"
           inkscape:connector-curvature="0" />
      </g>
    </g>
    <text
       xml:space="preserve"
       style="font-style:normal;font-weight:normal;font-size:40px;line-height:125%;font-family:sans-serif;letter-spacing:0px;word-spacing:0px;fill:#000000;fill-opacity:1;stroke:none;stroke-width:1px;stroke-linecap:butt;stroke-linejoin:miter;stroke-opacity:1"
       x="47.524754"
       y="966.22357"
       id="text4081"
       sodipodi:linespacing="125%"><tspan
         sodipodi:role="line"
         id="tspan4083"
         x="47.524754"
         y="966.22357" /></text>
    <g
       style="font-style:normal;font-weight:normal;font-size:40px;line-height:125%;font-family:sans-serif;letter-spacing:0px;word-spacing:0px;fill:#000000;fill-opacity:1;stroke:none;stroke-width:1px;stroke-linecap:butt;stroke-linejoin:miter;stroke-opacity:1"
       id="text4085">
      <path
         d="m 135.98271,1011.1713 q 7.1214,0 10.60117,4.0462 3.47978,4.0463 3.47978,12.2197 l 0,19.9076 q 0,2.2659 -1.37573,3.5607 -1.2948,1.2948 -3.64162,1.2948 -2.34683,0 -3.72255,-1.2948 -1.37573,-1.2948 -1.37573,-3.5607 l 0,-19.3411 q 0,-4.6127 -1.78035,-6.7168 -1.69942,-2.104 -5.42197,-2.104 -4.36995,0 -7.04048,2.7514 -2.5896,2.7515 -2.5896,7.3642 l 0,18.0463 q 0,2.2659 -1.37572,3.5607 -1.37573,1.2948 -3.72255,1.2948 -2.34683,0 -3.72255,-1.2948 -1.2948,-1.2948 -1.2948,-3.5607 l 0,-31.318 q 0,-2.1041 1.37572,-3.3989 1.37573,-1.2948 3.72255,-1.2948 2.10405,0 3.39885,1.2948 1.37573,1.2139 1.37573,3.237 l 0,2.185 q 2.02312,-3.3179 5.42197,-5.0983 3.39885,-1.7803 7.68788,-1.7803 z"
         style="font-style:normal;font-variant:normal;font-weight:bold;font-stretch:normal;font-size:80.92500305px;line-height:125%;font-family:Nunito;-inkscape-font-specification:'Nunito Bold';text-align:start;letter-spacing:1.10000002px;writing-mode:lr-tb;text-anchor:start;fill:#ffffff"
         id="path3360" />
      <path
         d="m 179.07772,1052.3621 q -5.90752,0 -10.43932,-2.5087 -4.45088,-2.5086 -6.87863,-7.1214 -2.42775,-4.6127 -2.42775,-10.763 0,-6.1503 2.50868,-10.8439 2.5896,-4.7746 7.20232,-7.3642 4.61273,-2.5896 10.60118,-2.5896 3.15608,0 6.31215,0.8902 3.237,0.8901 5.66475,2.4277 2.5896,1.6994 2.5896,4.289 0,1.7804 -0.89017,2.9133 -0.80925,1.0521 -2.18498,1.0521 -0.89017,0 -1.86127,-0.4047 -0.9711,-0.4046 -1.9422,-0.9711 -1.78035,-1.052 -3.39885,-1.6185 -1.6185,-0.6474 -3.72256,-0.6474 -5.01735,0 -7.7688,3.318 -2.67052,3.237 -2.67052,9.3873 0,6.0693 2.67052,9.3873 2.75145,3.237 7.7688,3.237 2.02313,0 3.56071,-0.5665 1.6185,-0.6474 3.5607,-1.6994 1.21387,-0.7284 2.10405,-1.0521 0.89017,-0.4046 1.78035,-0.4046 1.2948,0 2.18497,1.133 0.89018,1.1329 0.89018,2.8323 0,1.3758 -0.6474,2.4278 -0.56648,0.9711 -1.9422,1.7803 -2.50868,1.6185 -5.8266,2.5896 -3.31793,0.8902 -6.79771,0.8902 z"
         style="font-style:normal;font-variant:normal;font-weight:bold;font-stretch:normal;font-size:80.92500305px;line-height:125%;font-family:Nunito;-inkscape-font-specification:'Nunito Bold';text-align:start;letter-spacing:1.10000002px;writing-mode:lr-tb;text-anchor:start;fill:#ffffff"
         id="path3362" />
      <path
         d="m 225.11766,1011.1713 q 13.9191,0 13.9191,16.2659 l 0,19.9076 q 0,2.2659 -1.37573,3.5607 -1.2948,1.2948 -3.64162,1.2948 -2.34683,0 -3.72255,-1.2948 -1.37573,-1.2948 -1.37573,-3.5607 l 0,-19.9076 q 0,-4.289 -1.78035,-6.2312 -1.69942,-2.0231 -5.42197,-2.0231 -4.36995,0 -7.04048,2.7514 -2.5896,2.7515 -2.5896,7.3642 l 0,18.0463 q 0,2.2659 -1.37572,3.5607 -1.37573,1.2948 -3.72255,1.2948 -2.34683,0 -3.72255,-1.2948 -1.2948,-1.2948 -1.2948,-3.5607 l 0,-48.39318 q 0,-2.10405 1.37572,-3.39885 1.45665,-1.2948 3.72255,-1.2948 2.2659,0 3.64163,1.21387 1.37572,1.21388 1.37572,3.31793 l 0,18.85553 q 2.02313,-3.1561 5.34105,-4.7746 3.39885,-1.6994 7.68788,-1.6994 z"
         style="font-style:normal;font-variant:normal;font-weight:bold;font-stretch:normal;font-size:80.92500305px;line-height:125%;font-family:Nunito;-inkscape-font-specification:'Nunito Bold';text-align:start;letter-spacing:1.10000002px;writing-mode:lr-tb;text-anchor:start;fill:#ffffff"
         id="path3364" />
      <path
         d="m 255.50746,1052.2003 q -2.18498,0 -3.64163,-1.2139 -1.37572,-1.2948 -1.37572,-3.6416 l 0,-31.2371 q 0,-2.3468 1.37572,-3.5607 1.45665,-1.2139 3.64163,-1.2139 2.18497,0 3.64162,1.2139 1.45665,1.2139 1.45665,3.5607 l 0,31.2371 q 0,2.3468 -1.45665,3.6416 -1.45665,1.2139 -3.64162,1.2139 z m 0,-48.0695 q -2.75145,0 -4.36995,-1.4566 -1.6185,-1.5376 -1.6185,-3.96536 0,-2.42775 1.6185,-3.8844 1.6185,-1.45665 4.36995,-1.45665 2.67052,0 4.28902,1.45665 1.69943,1.45665 1.69943,3.8844 0,2.42776 -1.6185,3.96536 -1.6185,1.4566 -4.36995,1.4566 z"
         style="font-style:normal;font-variant:normal;font-weight:bold;font-stretch:normal;font-size:80.92500305px;line-height:125%;font-family:Nunito;-inkscape-font-specification:'Nunito Bold';text-align:start;letter-spacing:1.10000002px;writing-mode:lr-tb;text-anchor:start;fill:#ffffff"
         id="path3366" />
    </g>
  </g>
</svg>
